<mxfile host="app.diagrams.net" modified="2021-09-23T13:09:22.092Z" agent="5.0 (Windows NT 10.0; Win64; x64) AppleWebKit/537.36 (KHTML, like Gecko) Chrome/92.0.4515.131 Safari/537.36 OPR/78.0.4093.214" etag="ZrMh37dMMugk7ALW5ikf" version="15.3.0" type="github">
  <diagram id="_edBHU63QYS3Wx-VnRVm" name="Page-1">
    <mxGraphModel dx="1059" dy="681" grid="1" gridSize="10" guides="1" tooltips="1" connect="1" arrows="1" fold="1" page="1" pageScale="1" pageWidth="827" pageHeight="1169" math="0" shadow="0">
      <root>
        <mxCell id="0" />
        <mxCell id="1" parent="0" />
        <mxCell id="F5FpUPzZJHmB8ObPrYOM-5" style="edgeStyle=orthogonalEdgeStyle;rounded=0;orthogonalLoop=1;jettySize=auto;html=1;exitX=0.5;exitY=1;exitDx=0;exitDy=0;exitPerimeter=0;entryX=0.454;entryY=-0.02;entryDx=0;entryDy=0;entryPerimeter=0;" edge="1" parent="1" source="F5FpUPzZJHmB8ObPrYOM-1" target="F5FpUPzZJHmB8ObPrYOM-3">
          <mxGeometry relative="1" as="geometry" />
        </mxCell>
        <mxCell id="F5FpUPzZJHmB8ObPrYOM-1" value="Start" style="strokeWidth=2;html=1;shape=mxgraph.flowchart.terminator;whiteSpace=wrap;" vertex="1" parent="1">
          <mxGeometry x="364" y="40" width="100" height="60" as="geometry" />
        </mxCell>
        <mxCell id="F5FpUPzZJHmB8ObPrYOM-18" style="edgeStyle=orthogonalEdgeStyle;rounded=0;orthogonalLoop=1;jettySize=auto;html=1;exitX=0.5;exitY=1;exitDx=0;exitDy=0;" edge="1" parent="1" source="F5FpUPzZJHmB8ObPrYOM-3" target="F5FpUPzZJHmB8ObPrYOM-6">
          <mxGeometry relative="1" as="geometry" />
        </mxCell>
        <mxCell id="F5FpUPzZJHmB8ObPrYOM-3" value="importieren der Klassen Roboter und Screen" style="rounded=1;whiteSpace=wrap;html=1;absoluteArcSize=1;arcSize=14;strokeWidth=2;" vertex="1" parent="1">
          <mxGeometry x="310" y="130" width="220" height="40" as="geometry" />
        </mxCell>
        <mxCell id="F5FpUPzZJHmB8ObPrYOM-19" style="edgeStyle=orthogonalEdgeStyle;rounded=0;orthogonalLoop=1;jettySize=auto;html=1;exitX=0.5;exitY=1;exitDx=0;exitDy=0;entryX=0.5;entryY=0;entryDx=0;entryDy=0;" edge="1" parent="1" source="F5FpUPzZJHmB8ObPrYOM-6" target="F5FpUPzZJHmB8ObPrYOM-7">
          <mxGeometry relative="1" as="geometry" />
        </mxCell>
        <mxCell id="F5FpUPzZJHmB8ObPrYOM-6" value="initialisieren des Screens" style="rounded=1;whiteSpace=wrap;html=1;absoluteArcSize=1;arcSize=14;strokeWidth=2;" vertex="1" parent="1">
          <mxGeometry x="310" y="190" width="220" height="40" as="geometry" />
        </mxCell>
        <mxCell id="F5FpUPzZJHmB8ObPrYOM-20" style="edgeStyle=orthogonalEdgeStyle;rounded=0;orthogonalLoop=1;jettySize=auto;html=1;exitX=0.5;exitY=1;exitDx=0;exitDy=0;" edge="1" parent="1" source="F5FpUPzZJHmB8ObPrYOM-7" target="F5FpUPzZJHmB8ObPrYOM-8">
          <mxGeometry relative="1" as="geometry" />
        </mxCell>
        <mxCell id="F5FpUPzZJHmB8ObPrYOM-7" value="bgcolor für screen zuweisen&lt;span style=&quot;color: rgba(0 , 0 , 0 , 0) ; font-family: monospace ; font-size: 0px&quot;&gt;%3CmxGraphModel%3E%3Croot%3E%3CmxCell%20id%3D%220%22%2F%3E%3CmxCell%20id%3D%221%22%20parent%3D%220%22%2F%3E%3CmxCell%20id%3D%222%22%20value%3D%22initialisieren%20des%20Screens%22%20style%3D%22rounded%3D1%3BwhiteSpace%3Dwrap%3Bhtml%3D1%3BabsoluteArcSize%3D1%3BarcSize%3D14%3BstrokeWidth%3D2%3B%22%20vertex%3D%221%22%20parent%3D%221%22%3E%3CmxGeometry%20x%3D%22304%22%20y%3D%22190%22%20width%3D%22220%22%20height%3D%2240%22%20as%3D%22geometry%22%2F%3E%3C%2FmxCell%3E%3C%2Froot%3E%3C%2FmxGraphModel%3E&lt;/span&gt;" style="rounded=1;whiteSpace=wrap;html=1;absoluteArcSize=1;arcSize=14;strokeWidth=2;" vertex="1" parent="1">
          <mxGeometry x="310" y="250" width="220" height="40" as="geometry" />
        </mxCell>
        <mxCell id="F5FpUPzZJHmB8ObPrYOM-21" style="edgeStyle=orthogonalEdgeStyle;rounded=0;orthogonalLoop=1;jettySize=auto;html=1;exitX=0.5;exitY=1;exitDx=0;exitDy=0;entryX=0.5;entryY=0;entryDx=0;entryDy=0;" edge="1" parent="1" source="F5FpUPzZJHmB8ObPrYOM-8" target="F5FpUPzZJHmB8ObPrYOM-9">
          <mxGeometry relative="1" as="geometry" />
        </mxCell>
        <mxCell id="F5FpUPzZJHmB8ObPrYOM-8" value="Klasseninstanz des Roboters wird erstellt" style="rounded=1;whiteSpace=wrap;html=1;absoluteArcSize=1;arcSize=14;strokeWidth=2;" vertex="1" parent="1">
          <mxGeometry x="310" y="310" width="220" height="40" as="geometry" />
        </mxCell>
        <mxCell id="F5FpUPzZJHmB8ObPrYOM-22" style="edgeStyle=orthogonalEdgeStyle;rounded=0;orthogonalLoop=1;jettySize=auto;html=1;exitX=0.5;exitY=1;exitDx=0;exitDy=0;entryX=0.5;entryY=0;entryDx=0;entryDy=0;" edge="1" parent="1" source="F5FpUPzZJHmB8ObPrYOM-9" target="F5FpUPzZJHmB8ObPrYOM-10">
          <mxGeometry relative="1" as="geometry" />
        </mxCell>
        <mxCell id="F5FpUPzZJHmB8ObPrYOM-9" value="Parameter der Stiftgröße und der Farbe wird festgelegt" style="rounded=1;whiteSpace=wrap;html=1;absoluteArcSize=1;arcSize=14;strokeWidth=2;" vertex="1" parent="1">
          <mxGeometry x="310" y="370" width="220" height="40" as="geometry" />
        </mxCell>
        <mxCell id="F5FpUPzZJHmB8ObPrYOM-23" style="edgeStyle=orthogonalEdgeStyle;rounded=0;orthogonalLoop=1;jettySize=auto;html=1;exitX=0.5;exitY=1;exitDx=0;exitDy=0;entryX=0.5;entryY=0;entryDx=0;entryDy=0;" edge="1" parent="1" source="F5FpUPzZJHmB8ObPrYOM-10" target="F5FpUPzZJHmB8ObPrYOM-11">
          <mxGeometry relative="1" as="geometry" />
        </mxCell>
        <mxCell id="F5FpUPzZJHmB8ObPrYOM-10" value="Geschwindigkeit wird zugewiesen" style="rounded=1;whiteSpace=wrap;html=1;absoluteArcSize=1;arcSize=14;strokeWidth=2;" vertex="1" parent="1">
          <mxGeometry x="310" y="430" width="220" height="40" as="geometry" />
        </mxCell>
        <mxCell id="F5FpUPzZJHmB8ObPrYOM-25" style="edgeStyle=orthogonalEdgeStyle;rounded=0;orthogonalLoop=1;jettySize=auto;html=1;exitX=0.75;exitY=1;exitDx=0;exitDy=0;entryX=0.569;entryY=0.012;entryDx=0;entryDy=0;entryPerimeter=0;" edge="1" parent="1" source="F5FpUPzZJHmB8ObPrYOM-11" target="F5FpUPzZJHmB8ObPrYOM-12">
          <mxGeometry relative="1" as="geometry" />
        </mxCell>
        <mxCell id="F5FpUPzZJHmB8ObPrYOM-11" value="endlosschleife:" style="rounded=1;whiteSpace=wrap;html=1;absoluteArcSize=1;arcSize=14;strokeWidth=2;" vertex="1" parent="1">
          <mxGeometry x="310" y="490" width="220" height="40" as="geometry" />
        </mxCell>
        <mxCell id="F5FpUPzZJHmB8ObPrYOM-26" style="edgeStyle=orthogonalEdgeStyle;rounded=0;orthogonalLoop=1;jettySize=auto;html=1;exitX=0.5;exitY=1;exitDx=0;exitDy=0;entryX=0.5;entryY=0;entryDx=0;entryDy=0;" edge="1" parent="1" source="F5FpUPzZJHmB8ObPrYOM-12" target="F5FpUPzZJHmB8ObPrYOM-13">
          <mxGeometry relative="1" as="geometry" />
        </mxCell>
        <mxCell id="F5FpUPzZJHmB8ObPrYOM-12" value="100px vorwärts" style="rounded=1;whiteSpace=wrap;html=1;absoluteArcSize=1;arcSize=14;strokeWidth=2;" vertex="1" parent="1">
          <mxGeometry x="350" y="544.5" width="220" height="40" as="geometry" />
        </mxCell>
        <mxCell id="F5FpUPzZJHmB8ObPrYOM-27" style="edgeStyle=orthogonalEdgeStyle;rounded=0;orthogonalLoop=1;jettySize=auto;html=1;exitX=0;exitY=0.5;exitDx=0;exitDy=0;entryX=0;entryY=0.5;entryDx=0;entryDy=0;" edge="1" parent="1" source="F5FpUPzZJHmB8ObPrYOM-13" target="F5FpUPzZJHmB8ObPrYOM-11">
          <mxGeometry relative="1" as="geometry" />
        </mxCell>
        <mxCell id="F5FpUPzZJHmB8ObPrYOM-13" value="45° nach rechts drehen" style="rounded=1;whiteSpace=wrap;html=1;absoluteArcSize=1;arcSize=14;strokeWidth=2;" vertex="1" parent="1">
          <mxGeometry x="350" y="590" width="220" height="40" as="geometry" />
        </mxCell>
      </root>
    </mxGraphModel>
  </diagram>
</mxfile>
